<svg width="40" height="40" viewBox="0 0 40 40" fill="none" xmlns="http://www.w3.org/2000/svg">
<path d="M17.7084 21.5593L15.2917 19.1843C14.9861 18.8788 14.6042 18.726 14.1459 18.726C13.6875 18.726 13.2917 18.8927 12.9584 19.226C12.6528 19.5315 12.5 19.9204 12.5 20.3927C12.5 20.8649 12.6528 21.2538 12.9584 21.5593L16.5417 25.1427C16.875 25.476 17.2639 25.6427 17.7084 25.6427C18.1528 25.6427 18.5417 25.476 18.875 25.1427L25.9584 18.0593C26.2917 17.726 26.4514 17.3371 26.4375 16.8927C26.4236 16.4482 26.2639 16.0593 25.9584 15.726C25.625 15.3927 25.2292 15.219 24.7709 15.2052C24.3125 15.1913 23.9167 15.351 23.5834 15.6843L17.7084 21.5593ZM13.0417 36.6427L10.625 32.5593L6.04169 31.5593C5.62502 31.476 5.29169 31.2607 5.04169 30.9135C4.79169 30.5663 4.69446 30.1843 4.75002 29.7677L5.20835 25.0593L2.08335 21.476C1.80558 21.1704 1.66669 20.8093 1.66669 20.3927C1.66669 19.976 1.80558 19.6149 2.08335 19.3093L5.20835 15.726L4.75002 11.0177C4.69446 10.601 4.79169 10.219 5.04169 9.87182C5.29169 9.5246 5.62502 9.30932 6.04169 9.22599L10.625 8.22599L13.0417 4.14265C13.2639 3.78154 13.5695 3.53849 13.9584 3.41349C14.3472 3.28849 14.7361 3.30932 15.125 3.47599L19.4584 5.30932L23.7917 3.47599C24.1806 3.30932 24.5695 3.28849 24.9584 3.41349C25.3472 3.53849 25.6528 3.78154 25.875 4.14265L28.2917 8.22599L32.875 9.22599C33.2917 9.30932 33.625 9.5246 33.875 9.87182C34.125 10.219 34.2222 10.601 34.1667 11.0177L33.7084 15.726L36.8334 19.3093C37.1111 19.6149 37.25 19.976 37.25 20.3927C37.25 20.8093 37.1111 21.1704 36.8334 21.476L33.7084 25.0593L34.1667 29.7677C34.2222 30.1843 34.125 30.5663 33.875 30.9135C33.625 31.2607 33.2917 31.476 32.875 31.5593L28.2917 32.5593L25.875 36.6427C25.6528 37.0038 25.3472 37.2468 24.9584 37.3718C24.5695 37.4968 24.1806 37.476 23.7917 37.3093L19.4584 35.476L15.125 37.3093C14.7361 37.476 14.3472 37.4968 13.9584 37.3718C13.5695 37.2468 13.2639 37.0038 13.0417 36.6427ZM15.2084 33.6427L19.4584 31.8093L23.7917 33.6427L26.125 29.6427L30.7084 28.5593L30.2917 23.8927L33.375 20.3927L30.2917 16.8093L30.7084 12.1427L26.125 11.1427L23.7084 7.14265L19.4584 8.97599L15.125 7.14265L12.7917 11.1427L8.20835 12.1427L8.62502 16.8093L5.54169 20.3927L8.62502 23.8927L8.20835 28.6427L12.7917 29.6427L15.2084 33.6427Z" fill="#EBFF00"/>
</svg>
